# xmcd
#
# Track frame offsets:
#	180
#	18987
#	38907
#	60089
#	73429
#	90448
#	108595
#	125229
#	140882
#	159266
#	176714
#	191549
#	203099
#	217867
#	232139
#
# Disc length: 3286 seconds
#
# Revision: 1
# Processed by: cddbd v1.5.1PL2 Copyright (c) Steve Scherf et al.
# Submitted via: audiograbber 1.83.01
#
DISCID=d90cd40f
DTITLE=Sound Choice - SC8149
DYEAR=1900
DGENRE=Karaoke Country
TTITLE0=Tritt, Travis - Between An Old Melody And Me 
TTITLE1=Alabama - Angels Among Us 
TTITLE2=Kershaw, Sammy - Southbound
TTITLE3=Brown, Sawyer - This Time
TTITLE4=Mcbride, Martina - Heart Trouble
TTITLE5=Cyrus, Billy Ray  - Storm In The Heartland
TTITLE6=Diamond Rio - Night Is Fallin' In My Heart
TTITLE7=Hayes, Wade - Old Enough To Know Better
TTITLE8=Mcgraw, Tim - Not A Moment Too Soon
TTITLE9=Stone, Doug - Little Houses
TTITLE10=Loveless, Patty - Here I Am 
TTITLE11=Byrd, Tracy  - First Step, The
TTITLE12=Mattea, Kathy - Maybe She'S Human
TTITLE13=Wright, Chely - Till I Was Loved By You 
TTITLE14=Tillis, Pam - Mi Vida Loca (My Crazy Life)
EXTD=
EXTT0=
EXTT1=
EXTT2=
EXTT3=
EXTT4=
EXTT5=
EXTT6=
EXTT7=
EXTT8=
EXTT9=
EXTT10=
EXTT11=
EXTT12=
EXTT13=
EXTT14=
PLAYORDER=
